<?xml version="1.0" encoding="utf-8"?>
<!-- Generator: Adobe Illustrator 26.4.1, SVG Export Plug-In . SVG Version: 6.00 Build 0)  -->
<svg version="1.1" id="Camada_1" xmlns="http://www.w3.org/2000/svg" xmlns:xlink="http://www.w3.org/1999/xlink" x="0px" y="0px"
	 viewBox="0 0 54.6 13" style="enable-background:new 0 0 54.6 13;" xml:space="preserve">
<style type="text/css">
	.st0{fill:#3D8479;}
</style>
<g id="Camada_1-2">
	<g>
		<path class="st0" d="M3.2,9.8l1.6-6.4h1.4v9.4H4.8V7.4l-1.2,5.3H2.7L1.5,7.4v5.3H0.2V3.3h1.4L3.2,9.8z"/>
		<path class="st0" d="M11.2,10.7c0,1.3-0.7,2-2,2c-1.3,0-2-0.7-2-2V3.2h1.4v7.6c0,0.4,0.2,0.6,0.6,0.6c0.4,0,0.6-0.2,0.6-0.6V3.2
			h1.4V10.7L11.2,10.7z"/>
		<path class="st0" d="M12.3,5.1c0-1.3,0.7-2,2-2h0v1.3h0c-0.4,0-0.6,0.2-0.6,0.6v7.6h-1.4L12.3,5.1L12.3,5.1z"/>
		<path class="st0" d="M21.1,0.3h-1.4v12.4h1.4V0.3z"/>
		<path class="st0" d="M26.1,10.7c0,1.3-0.7,2-2,2c-1.3,0-2-0.7-2-2V5c0-1.3,0.7-2,2-2c1.3,0,2,0.7,2,2V10.7z M24.7,5
			c0-0.4-0.2-0.6-0.6-0.6h0c-0.4,0-0.6,0.2-0.6,0.6v5.7c0,0.4,0.2,0.6,0.6,0.6c0.4,0,0.6-0.2,0.6-0.6L24.7,5L24.7,5z"/>
		<path class="st0" d="M17.6,4.3v7.1h1.3v1.3h-4v-1.3h1.3V5c0-0.1,0-0.1,0-0.2s-0.1-0.1-0.1-0.1c0,0-0.1-0.1-0.2-0.1
			c-0.1,0-0.1,0-0.2,0h-0.8V3.2h1.6c0.1,0,0.3,0,0.4,0.1c0.1,0.1,0.3,0.1,0.4,0.2c0.1,0.1,0.2,0.2,0.2,0.3C17.6,4,17.6,4.1,17.6,4.3
			L17.6,4.3z"/>
		<path class="st0" d="M28,3.3h2c1.2,0,1.8,0.7,1.8,2v1.4c0,1-0.4,1.6-1.3,1.9c-0.3,0.1-0.6,0.1-0.9,0.1h-0.2v4H28V3.3z M29.4,4.7
			v2.7h0.3c0.1,0,0.3,0,0.4,0c0.2-0.1,0.4-0.3,0.4-0.6V5.3c0-0.4-0.2-0.6-0.6-0.6C29.9,4.7,29.4,4.7,29.4,4.7z"/>
		<path class="st0" d="M34.1,8.5v2.2c0,0.4,0.2,0.6,0.6,0.6c0.4,0,0.6-0.2,0.6-0.6V9.5h1.4v1.3c0,1.3-0.7,2-2,2s-2-0.7-2-2V5
			c0-1.3,0.7-2,2-2c1.3,0,2,0.7,2,2v3.5L34.1,8.5L34.1,8.5z M34.1,7.2h1.2V5c0-0.4-0.2-0.6-0.6-0.6h0c-0.4,0-0.6,0.2-0.6,0.6V7.2
			L34.1,7.2z"/>
		<path class="st0" d="M37.7,5.1c0-1.3,0.7-2,2-2h0v1.3h0c-0.4,0-0.6,0.2-0.6,0.6v7.6h-1.4L37.7,5.1L37.7,5.1z"/>
		<path class="st0" d="M41.6,8.5v2.2c0,0.4,0.2,0.6,0.6,0.6c0.4,0,0.6-0.2,0.6-0.6V9.5h1.4v1.3c0,1.3-0.7,2-2,2s-2-0.7-2-2V5
			c0-1.3,0.7-2,2-2c1.3,0,2,0.7,2,2v3.5L41.6,8.5L41.6,8.5z M41.6,7.2h1.2V5c0-0.4-0.2-0.6-0.6-0.6h0c-0.4,0-0.6,0.2-0.6,0.6V7.2z"
			/>
		<path class="st0" d="M46.7,0.3h-1.5v1.5h1.5V0.3z"/>
		<path class="st0" d="M46.6,3.3h-1.4v9.4h1.4V3.3z"/>
		<path class="st0" d="M47.7,5.1c0-1.3,0.7-2,2-2h0v1.3h0c-0.4,0-0.6,0.2-0.6,0.6v7.6h-1.4L47.7,5.1L47.7,5.1z"/>
		<path class="st0" d="M53,5c0-0.4-0.2-0.6-0.6-0.6h0c-0.4,0-0.6,0.2-0.6,0.6v1.3h-1.4V5c0-1.3,0.7-2,2-2c1.3,0,2,0.7,2,2v5.7
			c0,1.3-0.7,2-2,2s-2-0.7-2-2V9.2c0-1.3,0.5-2,1.5-2c0.4,0,0.8,0.1,1.1,0.3L53,5L53,5z M51.8,10.7c0,0.4,0.2,0.6,0.6,0.6
			c0.4,0,0.6-0.2,0.6-0.6V9.2c0-0.4-0.2-0.6-0.6-0.6s-0.6,0.2-0.6,0.6V10.7z"/>
	</g>
</g>
</svg>
