<svg xmlns="http://www.w3.org/2000/svg" viewBox="0 0 134.063 12.994">
  <g id="Grupo_17" data-name="Grupo 17" transform="translate(-997.292 -714.607)">
    <path id="Caminho_43" data-name="Caminho 43" d="M1003.67,727.261a4.1,4.1,0,0,0,3.185-3.81,3.788,3.788,0,0,0-3.846-3.8h-5.717l.02,12.533h1.861v-4.83h2.4c.517.779,2.86,4.728,2.885,4.769l.036.061h2.119L1006.5,732C1005.546,730.359,1004.546,728.686,1003.67,727.261Zm-4.5-1.768v-4.044h3.9a2.032,2.032,0,0,1,2,2,2.164,2.164,0,0,1-2,2.042Z" transform="translate(0 -4.803)" fill="#3d8479" fill-rule="evenodd" />
    <path id="Caminho_44" data-name="Caminho 44" d="M1254.1,725.85l-.132.046a1.574,1.574,0,0,1-.878.1c-.362-.11-.508-.548-.508-1.51v-4.651a4.474,4.474,0,0,0-1.212-3.627,5.146,5.146,0,0,0-3.61-1.169,9.755,9.755,0,0,0-4.863,1.471l-.106.068,1.034,1.585.105-.073a6.072,6.072,0,0,1,3.79-1.192,3.094,3.094,0,0,1,2.336.715,3.719,3.719,0,0,1,.6,2.122v.336a12.147,12.147,0,0,0-3.2-.461c-3.074,0-5.06,1.648-5.06,4.2,0,2.59,1.87,4.2,4.881,4.2a5.184,5.184,0,0,0,3.365-1.123c.038-.033.076-.062.115-.092s.1-.081.157-.128l.084.335.016.038a2.142,2.142,0,0,0,1.876.911,4.216,4.216,0,0,0,1.433-.368l.145-.058Zm-3.426-1.13h0a3.785,3.785,0,0,1-.914.773,4.866,4.866,0,0,1-2.558.656c-2.212,0-3-1.25-3-2.42,0-1.5,1.2-2.44,3.139-2.44a13.5,13.5,0,0,1,3.337.485l-.021,2.113C1250.663,724.31,1250.668,724.589,1250.678,724.719Z" transform="translate(-233.492 -0.409)" fill="#3d8479" fill-rule="evenodd" />
    <path id="Caminho_45" data-name="Caminho 45" d="M1544.419,719.649h-5.478v12.533h1.921v-4.115h3.6a4.262,4.262,0,0,0,4.185-4.2A4.193,4.193,0,0,0,1544.419,719.649Zm-.159,6.6h-3.4v-4.74h3.517a2.371,2.371,0,0,1-.119,4.74Z" transform="translate(-515.969 -4.803)" fill="#3d8479" fill-rule="evenodd" />
    <path id="Caminho_46" data-name="Caminho 46" d="M1816.961,725.016H1810.9v-5.367h-1.881v12.533h1.881v-5.307h6.06v5.307h1.9V719.649h-1.9v5.367Z" transform="translate(-773.243 -4.803)" fill="#3d8479" fill-rule="evenodd" />
    <path id="Caminho_47" data-name="Caminho 47" d="M2068.781,725.849l-.132.045a1.581,1.581,0,0,1-.878.1c-.362-.11-.509-.548-.509-1.51v-4.65a4.474,4.474,0,0,0-1.212-3.627,5.142,5.142,0,0,0-3.61-1.169,9.757,9.757,0,0,0-4.863,1.471l-.106.068,1.034,1.585.105-.073a6.073,6.073,0,0,1,3.79-1.191,3.093,3.093,0,0,1,2.335.715,3.715,3.715,0,0,1,.6,2.122v.336a12.147,12.147,0,0,0-3.2-.461c-3.074,0-5.06,1.648-5.06,4.2,0,2.59,1.87,4.2,4.881,4.2a5.181,5.181,0,0,0,3.365-1.123c.038-.033.076-.062.115-.092s.1-.081.157-.128l.084.334.017.038a2.142,2.142,0,0,0,1.875.911,4.217,4.217,0,0,0,1.431-.369h0l.145-.058Zm-3.426-1.13a3.8,3.8,0,0,1-.914.773,4.865,4.865,0,0,1-2.558.656c-2.211,0-3-1.25-3-2.42,0-1.505,1.2-2.44,3.139-2.44a13.5,13.5,0,0,1,3.337.485l-.019,2.114C2065.341,724.31,2065.346,724.589,2065.356,724.719Z" transform="translate(-1009.546 -0.409)" fill="#3d8479" fill-rule="evenodd" />
    <path id="Caminho_48" data-name="Caminho 48" d="M2345.844,721.589c0-4.437-2.062-6.982-5.657-6.982-3.57,0-5.876,2.592-5.876,6.6,0,3.82,2.409,6.386,6,6.386a7.165,7.165,0,0,0,5.167-2.107h0l.07-.076-1.025-1.372-.1.1a6.649,6.649,0,0,1-4.168,1.652,4.443,4.443,0,0,1-4.126-4.084h9.723Zm-9.627-1.694a4.163,4.163,0,0,1,3.97-3.528h0a3.857,3.857,0,0,1,3.8,3.527Z" transform="translate(-1273.631 0)" fill="#3d8479" fill-rule="evenodd" />
    <path id="Caminho_49" data-name="Caminho 49" d="M2635.911,730.3V719.649h-1.921v12.533h8.866V730.3h-6.945Z" transform="translate(-1559.102 -4.803)" fill="#3d8479" fill-rule="evenodd" />
    <path id="Caminho_50" data-name="Caminho 50" d="M2869.464,938.193a1.049,1.049,0,0,0-1.044,1.043,1.064,1.064,0,0,0,1.044,1.06,1.077,1.077,0,0,0,1.06-1.06A1.063,1.063,0,0,0,2869.464,938.193Z" transform="translate(-1782.417 -212.986)" fill="#3d8479" fill-rule="evenodd" />
    <path id="Caminho_51" data-name="Caminho 51" d="M2960.708,803.011h0a4.577,4.577,0,0,0-3.334,1.329l.656,1.043a3.329,3.329,0,0,1,2.441-1.077c1.162,0,1.987.606,1.987,1.615v1.344a3.4,3.4,0,0,0-2.661-1.076,2.624,2.624,0,0,0-2.829,2.657,2.7,2.7,0,0,0,2.829,2.691,3.488,3.488,0,0,0,2.661-1.093v.891h1.515v-5.482C2963.974,803.785,2962.476,803.011,2960.708,803.011Zm1.75,6.542a2.576,2.576,0,0,1-2.087.925,1.632,1.632,0,1,1,0-3.229,2.576,2.576,0,0,1,2.087.925Z" transform="translate(-1866.767 -84.211)" fill="#3d8479" fill-rule="evenodd" />
    <path id="Caminho_52" data-name="Caminho 52" d="M3150.536,804.821v-1.245h-1.514V811.7h1.515v-5.651a2.875,2.875,0,0,1,2.139-1.177,2.386,2.386,0,0,1,.522.05v-1.531a3.457,3.457,0,0,0-2.661,1.43Z" transform="translate(-2049.716 -84.575)" fill="#3d8479" fill-rule="evenodd" />
    <path id="Caminho_53" data-name="Caminho 53" d="M3287.618,769.666c-.522,0-.792-.42-.792-.992v-4.658h1.65v-1.329h-1.65v-2.22h-1.516v2.22h-1.347v1.329h1.347v4.995a1.768,1.768,0,0,0,1.937,2,2.159,2.159,0,0,0,1.583-.522l-.388-1.144a1.165,1.165,0,0,1-.824.32Z" transform="translate(-2178.261 -43.685)" fill="#3d8479" fill-rule="evenodd" />
    <path id="Caminho_54" data-name="Caminho 54" d="M3446.359,938.193a1.049,1.049,0,0,0-1.044,1.043,1.064,1.064,0,0,0,1.044,1.059,1.078,1.078,0,0,0,1.061-1.059,1.064,1.064,0,0,0-1.06-1.043Z" transform="translate(-2331.962 -212.986)" fill="#3d8479" fill-rule="evenodd" />
    <path id="Caminho_55" data-name="Caminho 55" d="M3540.695,744.916h0a3.268,3.268,0,0,0-2.661,1.379v-4.272h-1.515v11.218h1.515V752.08a3.341,3.341,0,0,0,2.661,1.363c2.1,0,3.62-1.6,3.62-4.255C3544.315,746.581,3542.817,744.916,3540.695,744.916Zm-.4,7.182h0a2.773,2.773,0,0,1-2.256-1.177v-3.448a2.8,2.8,0,0,1,2.256-1.211c1.516,0,2.458,1.228,2.458,2.927S3541.806,752.1,3540.291,752.1Z" transform="translate(-2418.842 -26.116)" fill="#3d8479" fill-rule="evenodd" />
    <path id="Caminho_56" data-name="Caminho 56" d="M3738.432,804.821v-1.245h-1.516V811.7h1.516v-5.651a2.875,2.875,0,0,1,2.139-1.177,2.379,2.379,0,0,1,.522.05v-1.531a3.457,3.457,0,0,0-2.66,1.43Z" transform="translate(-2609.738 -84.575)" fill="#3d8479" fill-rule="evenodd" />
  </g>
</svg>